<mxfile host="app.diagrams.net" modified="2023-04-05T17:23:36.228Z" agent="5.0 (Windows NT 10.0; Win64; x64) AppleWebKit/537.36 (KHTML, like Gecko) Chrome/97.0.4692.99 Safari/537.36" etag="ToWJt3Sx2X4GuSGf6syu" version="20.8.22" type="github">
  <diagram id="8RJ8mssdF1vG-TmknEG7" name="分布式缓存和本地缓存结合">
    <mxGraphModel dx="1434" dy="764" grid="1" gridSize="10" guides="1" tooltips="1" connect="1" arrows="1" fold="1" page="1" pageScale="1" pageWidth="827" pageHeight="1169" math="0" shadow="0">
      <root>
        <mxCell id="0" />
        <mxCell id="1" parent="0" />
        <mxCell id="uZfBojcmFlelx03m-J6l-1" value="Actor" style="shape=umlActor;verticalLabelPosition=bottom;verticalAlign=top;html=1;outlineConnect=0;" parent="1" vertex="1">
          <mxGeometry x="90" y="360" width="30" height="60" as="geometry" />
        </mxCell>
        <mxCell id="uZfBojcmFlelx03m-J6l-2" value="网关" style="rounded=1;whiteSpace=wrap;html=1;fillColor=#d5e8d4;strokeColor=#82b366;" parent="1" vertex="1">
          <mxGeometry x="190" y="370" width="90" height="40" as="geometry" />
        </mxCell>
        <mxCell id="uZfBojcmFlelx03m-J6l-5" value="" style="endArrow=classic;html=1;rounded=0;fontColor=#3CFF36;entryX=0;entryY=0.5;entryDx=0;entryDy=0;" parent="1" target="uZfBojcmFlelx03m-J6l-2" edge="1">
          <mxGeometry width="50" height="50" relative="1" as="geometry">
            <mxPoint x="130" y="390" as="sourcePoint" />
            <mxPoint x="170" y="390" as="targetPoint" />
          </mxGeometry>
        </mxCell>
        <mxCell id="uZfBojcmFlelx03m-J6l-6" value="分布式缓存" style="ellipse;shape=cloud;whiteSpace=wrap;html=1;align=center;strokeColor=#6c8ebf;fillColor=#dae8fc;" parent="1" vertex="1">
          <mxGeometry x="190" y="230" width="100" height="60" as="geometry" />
        </mxCell>
        <mxCell id="uZfBojcmFlelx03m-J6l-7" value="集群多节点共享存储" style="text;html=1;strokeColor=none;fillColor=none;align=center;verticalAlign=middle;whiteSpace=wrap;rounded=0;fontColor=#000000;" parent="1" vertex="1">
          <mxGeometry x="280" y="230" width="120" height="20" as="geometry" />
        </mxCell>
        <mxCell id="uZfBojcmFlelx03m-J6l-8" value="商品服务" style="rounded=1;whiteSpace=wrap;html=1;fillColor=#d5e8d4;strokeColor=#82b366;" parent="1" vertex="1">
          <mxGeometry x="350" y="440" width="90" height="40" as="geometry" />
        </mxCell>
        <mxCell id="uZfBojcmFlelx03m-J6l-9" value="订单服务" style="rounded=1;whiteSpace=wrap;html=1;fillColor=#d5e8d4;strokeColor=#82b366;" parent="1" vertex="1">
          <mxGeometry x="350" y="370" width="90" height="40" as="geometry" />
        </mxCell>
        <mxCell id="uZfBojcmFlelx03m-J6l-10" value="用户服务" style="rounded=1;whiteSpace=wrap;html=1;fillColor=#d5e8d4;strokeColor=#82b366;" parent="1" vertex="1">
          <mxGeometry x="350" y="300" width="90" height="40" as="geometry" />
        </mxCell>
        <mxCell id="uZfBojcmFlelx03m-J6l-12" value="" style="edgeStyle=elbowEdgeStyle;elbow=horizontal;endArrow=classic;html=1;rounded=0;fontColor=#000000;exitX=1;exitY=0.5;exitDx=0;exitDy=0;entryX=0;entryY=0.5;entryDx=0;entryDy=0;" parent="1" source="uZfBojcmFlelx03m-J6l-2" target="uZfBojcmFlelx03m-J6l-10" edge="1">
          <mxGeometry width="50" height="50" relative="1" as="geometry">
            <mxPoint x="280" y="430" as="sourcePoint" />
            <mxPoint x="330" y="380" as="targetPoint" />
          </mxGeometry>
        </mxCell>
        <mxCell id="uZfBojcmFlelx03m-J6l-13" value="" style="edgeStyle=elbowEdgeStyle;elbow=horizontal;endArrow=classic;html=1;rounded=0;fontColor=#000000;exitX=1;exitY=0.5;exitDx=0;exitDy=0;entryX=0;entryY=0.5;entryDx=0;entryDy=0;" parent="1" source="uZfBojcmFlelx03m-J6l-2" target="uZfBojcmFlelx03m-J6l-8" edge="1">
          <mxGeometry width="50" height="50" relative="1" as="geometry">
            <mxPoint x="390" y="450" as="sourcePoint" />
            <mxPoint x="440" y="400" as="targetPoint" />
          </mxGeometry>
        </mxCell>
        <mxCell id="uZfBojcmFlelx03m-J6l-14" value="" style="edgeStyle=segmentEdgeStyle;endArrow=classic;html=1;rounded=0;fontColor=#000000;exitX=1;exitY=0.5;exitDx=0;exitDy=0;entryX=0;entryY=0.5;entryDx=0;entryDy=0;" parent="1" source="uZfBojcmFlelx03m-J6l-2" target="uZfBojcmFlelx03m-J6l-9" edge="1">
          <mxGeometry width="50" height="50" relative="1" as="geometry">
            <mxPoint x="390" y="450" as="sourcePoint" />
            <mxPoint x="340" y="390" as="targetPoint" />
            <Array as="points" />
          </mxGeometry>
        </mxCell>
        <mxCell id="uZfBojcmFlelx03m-J6l-15" value="本地缓存" style="text;html=1;strokeColor=#6c8ebf;fillColor=#dae8fc;align=center;verticalAlign=middle;whiteSpace=wrap;rounded=0;" parent="1" vertex="1">
          <mxGeometry x="389" y="340" width="50" height="20" as="geometry" />
        </mxCell>
        <mxCell id="uZfBojcmFlelx03m-J6l-16" value="本地缓存" style="text;html=1;strokeColor=#6c8ebf;fillColor=#dae8fc;align=center;verticalAlign=middle;whiteSpace=wrap;rounded=0;" parent="1" vertex="1">
          <mxGeometry x="390" y="410" width="50" height="20" as="geometry" />
        </mxCell>
        <mxCell id="uZfBojcmFlelx03m-J6l-17" value="本地缓存" style="text;html=1;strokeColor=#6c8ebf;fillColor=#dae8fc;align=center;verticalAlign=middle;whiteSpace=wrap;rounded=0;" parent="1" vertex="1">
          <mxGeometry x="389" y="480" width="50" height="20" as="geometry" />
        </mxCell>
        <mxCell id="uZfBojcmFlelx03m-J6l-19" value="数据库" style="shape=cylinder3;whiteSpace=wrap;html=1;boundedLbl=1;backgroundOutline=1;size=15;strokeColor=#82b366;fillColor=#d5e8d4;" parent="1" vertex="1">
          <mxGeometry x="560" y="270" width="50" height="70" as="geometry" />
        </mxCell>
        <mxCell id="uZfBojcmFlelx03m-J6l-20" value="数据库" style="shape=cylinder3;whiteSpace=wrap;html=1;boundedLbl=1;backgroundOutline=1;size=15;strokeColor=#82b366;fillColor=#d5e8d4;" parent="1" vertex="1">
          <mxGeometry x="560" y="355" width="50" height="70" as="geometry" />
        </mxCell>
        <mxCell id="uZfBojcmFlelx03m-J6l-21" value="数据库" style="shape=cylinder3;whiteSpace=wrap;html=1;boundedLbl=1;backgroundOutline=1;size=15;strokeColor=#82b366;fillColor=#d5e8d4;" parent="1" vertex="1">
          <mxGeometry x="560" y="440" width="50" height="70" as="geometry" />
        </mxCell>
        <mxCell id="uZfBojcmFlelx03m-J6l-23" value="" style="endArrow=classic;html=1;rounded=0;fontColor=#000000;" parent="1" edge="1">
          <mxGeometry width="50" height="50" relative="1" as="geometry">
            <mxPoint x="440" y="320" as="sourcePoint" />
            <mxPoint x="550" y="320" as="targetPoint" />
          </mxGeometry>
        </mxCell>
        <mxCell id="uZfBojcmFlelx03m-J6l-24" value="" style="endArrow=classic;html=1;rounded=0;fontColor=#000000;" parent="1" edge="1">
          <mxGeometry width="50" height="50" relative="1" as="geometry">
            <mxPoint x="440" y="459.5" as="sourcePoint" />
            <mxPoint x="550" y="459.5" as="targetPoint" />
          </mxGeometry>
        </mxCell>
        <mxCell id="uZfBojcmFlelx03m-J6l-25" value="" style="endArrow=classic;html=1;rounded=0;fontColor=#000000;" parent="1" edge="1">
          <mxGeometry width="50" height="50" relative="1" as="geometry">
            <mxPoint x="440" y="389.5" as="sourcePoint" />
            <mxPoint x="550" y="389.5" as="targetPoint" />
          </mxGeometry>
        </mxCell>
      </root>
    </mxGraphModel>
  </diagram>
</mxfile>
